# xmcd
#
# Track frame offsets: 
#        150
#        23051
#        49943
#        63041
#        80680
#        95856
#        200085
#        218096
#        235100
#
# Disc length: 3359 seconds
#
# Revision: 0
# Processed by: cddbd v1.5.2PL0 Copyright (c) Steve Scherf et al.
# Submitted via: ExactAudioCopy v1.3
#
DISCID=7a0d1d09
DTITLE=Canned Heat - The Boogie Assault, Live In Australia
DYEAR=1996
DGENRE=Blues Rock
TTITLE0=On The Road Again
TTITLE1=Amphetamine Annie
TTITLE2=Going Up The Country
TTITLE3=Let's Work Together
TTITLE4=Knigs Of The Boogie
TTITLE5=Refried Hockey Boogie
TTITLE6=Hell's On Down The Line
TTITLE7=Chicken Shack Boogie
TTITLE8=So Long
EXTD=
EXTT0=
EXTT1=
EXTT2=
EXTT3=
EXTT4=
EXTT5=
EXTT6=
EXTT7=
EXTT8=
PLAYORDER=
